HIERARCHY
ROOT Hips
{
	OFFSET -3.958830 18.904000 13.208200
	CHANNELS 6 Xposition Yposition Zposition Zrotation Yrotation Xrotation 
	JOINT LHipJoint
	{
		OFFSET 0.000000 0.000000 0.000000
		CHANNELS 3 Zrotation Yrotation Xrotation
		JOINT LeftUpLeg
		{
			OFFSET 1.800000 -1.400000 0.085000
			CHANNELS 3 Zrotation Yrotation Xrotation
			JOINT LeftLeg
			{
				OFFSET 2.215000 -6.000000 0.000000
				CHANNELS 3 Zrotation Yrotation Xrotation
				JOINT LeftFoot
				{
					OFFSET 2.500000 -6.900000 0.000000
					CHANNELS 3 Zrotation Yrotation Xrotation
					JOINT LeftToeBase
					{
						OFFSET 0.200000 -0.500000 1.950000
						CHANNELS 3 Zrotation Yrotation Xrotation
						End Site
						{
							OFFSET 0.000000 0.000000 0.000000
						}
					}
				}
			}
		}
	}
	JOINT RHipJoint
	{
		OFFSET 0.000000 0.000000 0.000000
		CHANNELS 3 Zrotation Yrotation Xrotation
		JOINT RightUpLeg
		{
			OFFSET -1.800000 -1.400000 0.085000
			CHANNELS 3 Zrotation Yrotation Xrotation
			JOINT RightLeg
			{
				OFFSET -2.215000 -6.000000 0.000000
				CHANNELS 3 Zrotation Yrotation Xrotation
				JOINT RightFoot
				{
					OFFSET -2.500000 -6.900000 0.000000
					CHANNELS 3 Zrotation Yrotation Xrotation
					JOINT RightToeBase
					{
						OFFSET -0.200000 -0.500000 1.950000
						CHANNELS 3 Zrotation Yrotation Xrotation
						End Site
						{
							OFFSET 0.000000 0.000000 0.000000
						}
					}
				}
			}
		}
	}
	JOINT LowerBack
	{
		OFFSET 0.000000 0.000000 0.000000
		CHANNELS 3 Zrotation Yrotation Xrotation
		JOINT Spine
		{
			OFFSET -0.087000 1.940000 -0.288900
			CHANNELS 3 Zrotation Yrotation Xrotation
			JOINT Spine1
			{
				OFFSET 0.000000 1.950000 0.060000
				CHANNELS 3 Zrotation Yrotation Xrotation
				JOINT Neck
				{
					OFFSET 0.000000 0.000000 0.000000
					CHANNELS 3 Zrotation Yrotation Xrotation
					JOINT Neck1
					{
						OFFSET 0.000000 1.600000 0.340000
						CHANNELS 3 Zrotation Yrotation Xrotation
						JOINT Head
						{
							OFFSET 0.000000 1.667000 -0.240000
							CHANNELS 3 Zrotation Yrotation Xrotation
							End Site
							{
								OFFSET 0.000000 0.000000 0.000000
							}
						}
					}
				}
				JOINT LeftShoulder
				{
					OFFSET 0.000000 0.000000 0.000000
					CHANNELS 3 Zrotation Yrotation Xrotation
					JOINT LeftArm
					{
						OFFSET 2.700000 1.550000 -0.730000
						CHANNELS 3 Zrotation Yrotation Xrotation
						JOINT LeftForeArm
						{
							OFFSET 5.450000 0.000000 0.000000
							CHANNELS 3 Zrotation Yrotation Xrotation
							JOINT LeftHand
							{
								OFFSET 3.450000 0.000000 0.000000
								CHANNELS 3 Zrotation Yrotation Xrotation
								JOINT LeftHandIndex1
								{
									OFFSET 0.750000 0.000000 0.000000
									CHANNELS 3 Zrotation Yrotation Xrotation
									End Site
									{
										OFFSET 0.000000 0.000000 0.000000
									}
								}
							}
						}
					}
				}
				JOINT RightShoulder
				{
					OFFSET 0.000000 0.000000 0.000000
					CHANNELS 3 Zrotation Yrotation Xrotation
					JOINT RightArm
					{
						OFFSET -2.700000 1.550000 -0.730000
						CHANNELS 3 Zrotation Yrotation Xrotation
						JOINT RightForeArm
						{
							OFFSET -5.450000 0.000000 0.000000
							CHANNELS 3 Zrotation Yrotation Xrotation
							JOINT RightHand
							{
								OFFSET -3.450000 0.000000 0.000000
								CHANNELS 3 Zrotation Yrotation Xrotation
								JOINT RightHandIndex1
								{
									OFFSET -0.750000 0.000000 0.000000
									CHANNELS 3 Zrotation Yrotation Xrotation
									End Site
									{
										OFFSET 0.000000 0.000000 0.000000
									}
								}
							}
						}
					}
				}
			}
		}
	}
}
MOTION
Frames: 13
Frame Time: 0.016667
-0.342230 17.678740 3.591540 -9.264861 10.573272 7.145789 -15.886241 10.464644 6.683396 30.559774 -8.193747 -46.087621 -30.352826 16.935439 30.585186 0.544375 9.402379 0.800675 0.424810 0.418780 0.518260 18.184073 -7.056450 4.076862 -25.924071 4.512497 -46.888394 15.055734 -10.464964 31.128077 -0.688034 -5.002191 2.185670 0.111490 -0.461480 0.106530 -2.441949 -4.164669 -10.375165 2.886982 -2.227800 46.456628 2.850668 0.785530 -5.295733 2.142153 0.565865 -16.215618 -6.390779 5.940301 68.925930 1.634150 6.015450 -19.006040 -33.070586 -27.415824 6.147530 -40.989407 -6.402228 -10.092994 -33.790286 -28.454217 4.140905 -3.068818 3.019813 0.775840 -0.422320 0.611140 -0.127680 30.086468 28.341374 10.055742 51.018564 0.577452 -19.945307 29.167685 43.369657 4.947371 2.228212 -1.263167 0.037030 0.126760 -0.061660 -0.227820 
-0.287180 17.904040 3.582480 -10.420745 10.203069 5.930033 -15.819590 10.902208 6.090826 27.603114 -7.790079 -43.157453 -25.375064 14.819357 29.733790 0.332153 8.517045 1.093949 0.399740 0.382290 0.487180 18.171614 -7.241459 4.223152 -25.760820 4.643003 -46.165326 16.714453 -14.277198 39.183108 -0.964455 -6.685332 1.646885 0.090340 -0.435260 0.096160 -2.517270 -4.447237 -10.214502 4.597386 -3.710066 43.175314 3.079838 -0.329357 -4.892667 2.239076 -0.421518 -15.226709 -8.605603 6.900045 66.063277 1.676810 5.514550 -19.149100 -30.289493 -24.719482 5.859163 -44.471043 -6.090386 -10.173481 -37.995504 -29.069718 4.938933 -3.127276 3.025053 0.767450 -0.419410 0.586220 -0.115750 27.063145 25.781025 9.892258 52.343801 -0.680764 -19.777194 38.154968 44.936443 7.909370 2.326130 -1.275225 0.025710 0.137610 -0.053470 -0.217470 
-0.235190 18.142690 3.569350 -11.880623 9.861589 4.698139 -15.711117 11.391794 5.340348 24.489966 -6.734717 -39.557247 -20.046894 12.208439 27.057997 0.100794 7.270067 1.534306 0.370180 0.344540 0.433810 18.189893 -7.446783 4.444947 -25.160012 4.871514 -45.811333 17.376433 -18.829402 48.459386 -1.366927 -8.658631 1.058026 0.074010 -0.387850 0.085720 -2.694969 -4.666699 -10.014454 7.254515 -5.559739 40.049700 2.800355 -1.694944 -3.909716 2.305389 -1.743785 -14.688159 -11.429763 8.097824 63.236521 1.740330 4.744490 -17.690470 -28.089825 -22.585364 5.742091 -46.539926 -5.831760 -10.240533 -42.089031 -30.374077 6.122085 -3.174583 3.062268 0.727050 -0.399200 0.540440 -0.089780 24.617478 23.997290 9.794036 52.380401 -0.766611 -18.909851 45.263458 45.725882 10.530908 2.403402 -1.322205 0.018510 0.143500 -0.046370 -0.190980 
-0.180550 18.387120 3.556620 -13.452649 9.204705 3.919796 -15.593290 11.857209 4.601109 21.950780 -5.363980 -36.011772 -15.244117 9.883995 23.516320 -0.055640 5.999938 2.008255 0.335120 0.309760 0.381570 18.221375 -7.660515 4.652626 -24.074114 5.081755 -45.569153 16.982422 -23.118795 57.105347 -1.797745 -10.483882 0.572433 0.046150 -0.336370 0.080460 -2.907883 -4.791596 -9.804404 10.216550 -7.299881 36.671467 2.178654 -3.075856 -2.563296 2.605546 -2.673427 -14.747370 -13.104763 9.095644 61.202134 1.139790 4.730730 -15.035580 -25.965546 -21.406398 6.212534 -48.607236 -5.009931 -10.825472 -45.969584 -33.109918 7.813722 -3.217582 3.111063 0.663140 -0.361050 0.492910 -0.062330 21.727655 23.100410 9.826676 51.804530 -0.240934 -17.545986 52.348428 44.962161 12.777423 2.480962 -1.381588 0.026270 0.135960 -0.045850 -0.158230 
-0.130280 18.633190 3.532170 -15.435316 8.551689 2.934229 -15.442881 12.221480 3.903423 20.366367 -3.808282 -32.010154 -11.208619 7.681587 18.248843 -0.223254 4.784740 2.461311 0.318160 0.284550 0.373390 18.293463 -7.921079 4.788355 -22.330084 5.476336 -44.958898 15.953046 -27.086159 65.282780 -2.245097 -12.170149 0.138777 0.044730 -0.322530 0.082190 -3.226395 -4.683883 -9.546995 14.252544 -9.030857 33.659592 0.593053 -4.257651 -0.531202 3.128598 -2.985444 -14.425617 -13.302065 9.290055 59.866352 -0.583710 5.165430 -14.192310 -23.551745 -20.283034 6.246989 -49.672861 -6.173663 -10.397232 -49.852218 -35.651196 9.933954 -3.270024 3.141887 0.638170 -0.332880 0.463380 -0.066470 17.957802 21.722984 9.533861 51.653713 1.570367 -15.976848 59.117893 45.306553 15.580241 2.529792 -1.440195 0.015470 0.127400 -0.035510 -0.165010 
-0.091770 18.857320 3.500760 -17.550149 7.804130 2.650243 -15.312109 12.224206 3.456166 20.347574 -2.599324 -28.886097 -8.763581 6.193756 12.774191 -0.288389 4.067623 2.752502 0.308480 0.280580 0.364420 18.417188 -7.976065 4.940134 -20.992874 6.024532 -45.276178 14.999374 -31.461382 73.445311 -2.728380 -13.911219 -0.260917 0.049910 -0.287930 0.090170 -3.576576 -4.408329 -9.378926 18.672309 -10.503307 30.368953 -0.686970 -5.391142 1.684013 3.365415 -3.428870 -13.871972 -13.359557 9.391575 57.379491 -1.912330 5.587070 -14.310820 -20.384327 -19.005854 6.282586 -51.003975 -7.864526 -9.586278 -53.216179 -38.852237 12.517825 -3.339022 3.169188 0.597530 -0.295080 0.434560 -0.062390 14.031764 20.240537 8.809036 51.197441 4.874914 -13.680127 64.556073 45.801213 18.425716 2.558864 -1.497711 0.014050 0.135700 -0.027070 -0.155400 
-0.074590 19.056230 3.451290 -18.726630 7.406364 2.867076 -15.198253 12.054737 3.125910 20.080005 -2.086014 -26.776730 -6.757383 5.217344 9.098535 -0.311650 3.665649 2.942940 0.277230 0.247910 0.321870 18.548616 -7.965680 5.149886 -20.999713 6.160204 -45.951539 14.842349 -36.318334 80.336558 -3.162102 -15.536018 -0.598543 0.048450 -0.230010 0.096150 -3.913102 -3.996013 -9.282158 21.934158 -11.061861 26.805985 -1.607476 -6.107070 3.814692 3.316622 -3.314573 -13.804600 -12.283553 9.087594 55.855558 -2.192900 5.933360 -12.330880 -16.791695 -18.669544 6.795005 -51.386352 -9.433097 -8.511136 -58.966093 -43.427336 17.101588 -3.408377 3.230866 0.544160 -0.238390 0.381240 -0.047470 10.334256 19.378643 8.422423 51.055893 7.747585 -11.644370 68.633998 47.485036 21.470264 2.563367 -1.571105 -0.000210 0.130590 -0.013280 -0.143160 
-0.060730 19.254300 3.374820 -19.474964 6.726684 2.687416 -15.130878 11.929855 2.866528 20.124148 -1.753433 -24.997776 -5.785046 4.944719 7.968827 -0.319230 3.584896 2.998388 0.282030 0.252430 0.319710 18.630916 -7.891217 5.374040 -21.453771 6.467277 -46.365928 14.642552 -41.077148 86.649729 -3.583370 -16.972852 -0.868117 0.059600 -0.210150 0.102100 -4.117606 -3.739623 -9.230844 24.194908 -11.320526 24.716083 -2.088871 -6.559367 5.383936 3.336422 -3.209891 -13.998900 -11.806895 8.504239 55.793423 -2.811190 5.538350 -12.096590 -13.735789 -19.125505 7.290620 -50.966139 -11.326786 -7.184033 -64.260649 -46.931557 21.556971 -3.436789 3.260328 0.527050 -0.218570 0.369100 -0.034350 7.165038 19.541953 8.341347 50.059498 10.610280 -9.859966 72.979576 50.403556 25.501496 2.576160 -1.603511 -0.003320 0.141380 -0.015150 -0.137250 
-0.051990 19.422410 3.303590 -19.724028 5.319449 2.647979 -15.091854 11.823495 2.585184 20.280134 -1.518613 -24.149387 -5.604986 5.423861 10.287018 -0.326638 3.750159 2.948349 0.265350 0.240530 0.285120 18.698106 -7.736972 5.714243 -22.655949 7.006175 -47.249454 14.734678 -46.333217 92.701322 -3.979421 -18.387748 -1.103073 0.071600 -0.162320 0.096350 -4.264810 -3.546831 -9.223383 25.290458 -10.739560 23.075673 -1.754574 -6.396326 6.508036 3.021654 -3.008571 -14.143527 -11.170086 8.311393 55.787747 -2.156180 5.364090 -11.008780 -10.648050 -19.468444 7.606542 -50.028683 -13.742007 -5.258880 -70.861199 -50.636607 27.528866 -3.490329 3.290848 0.499370 -0.182770 0.330380 -0.023520 4.694548 19.628428 8.234284 47.876679 12.983119 -7.973754 79.161353 53.014701 30.707196 2.594842 -1.620420 -0.023040 0.157340 0.000010 -0.127990 
-0.050710 19.570960 3.211220 -19.662824 3.139976 2.596947 -15.061980 11.693266 2.292577 20.429052 -1.318018 -23.812009 -5.741897 6.488430 15.118786 -0.309176 4.179704 2.793766 0.259240 0.235960 0.273700 18.763795 -7.534381 6.149969 -24.211419 7.983274 -48.313438 16.730138 -52.307036 96.623455 -4.328643 -19.564061 -1.278160 0.088290 -0.125950 0.096550 -4.407291 -3.289656 -9.259730 25.874782 -9.600865 22.083294 -1.362743 -5.672537 7.606140 2.661355 -2.641243 -14.157469 -10.341132 7.644922 56.258582 -2.145540 5.185800 -9.933810 -7.703259 -20.069560 7.590839 -47.165260 -17.587212 -2.441963 -79.278390 -55.136564 36.307732 -3.563868 3.310988 0.463440 -0.147250 0.296720 -0.016350 2.478117 19.996630 8.207482 45.539594 15.638213 -6.158203 84.625676 57.439708 37.234510 2.662007 -1.575494 -0.035400 0.165330 0.005390 -0.122540 
-0.033170 19.706080 3.093260 -19.388231 1.595464 2.252740 -15.071204 11.573652 2.096995 20.056829 -1.379403 -24.244152 -5.697091 7.891324 21.594563 -0.257000 4.883284 2.529408 0.269500 0.261370 0.271180 18.797859 -7.273733 6.547916 -25.927321 8.400902 -49.361637 18.710083 -58.095123 99.551904 -4.619276 -20.447368 -1.381285 0.112750 -0.105420 0.104510 -4.453567 -3.213702 -9.339468 26.122032 -8.778729 21.859929 -0.648704 -5.198661 8.401863 2.409184 -2.165332 -14.156522 -9.486111 7.025771 57.183784 -2.580960 5.270790 -9.795890 -4.881751 -21.190923 7.413130 -43.479720 -22.587706 0.495460 -86.228736 -61.506676 46.778807 -3.664635 3.246516 0.433890 -0.117340 0.283920 -0.007050 0.206376 20.753573 8.189571 42.099824 18.296783 -4.703886 93.612008 62.460191 47.215910 2.826707 -1.349037 -0.033190 0.172630 0.004200 -0.115290 
-0.020620 19.824470 2.970280 -19.260763 0.034782 1.174083 -15.093938 11.448259 2.011524 20.031518 -1.510128 -24.184750 -5.656579 9.587022 28.417044 -0.129277 5.903548 2.154425 0.299590 0.308160 0.291140 18.807341 -7.047212 6.823125 -27.013897 8.836213 -49.676358 22.125441 -63.024006 99.731461 -4.776232 -20.734023 -1.386443 0.143760 -0.111920 0.115280 -4.451352 -3.140299 -9.442171 26.226120 -8.226455 22.640973 -0.195977 -4.905803 8.969711 2.303549 -1.436836 -13.951864 -7.912932 6.144543 58.552535 -3.352470 5.734340 -10.105410 -3.083902 -22.672542 7.077863 -36.389267 -26.478883 2.202584 -97.826334 -69.003710 63.473681 -3.848097 2.880825 0.412480 -0.101210 0.290350 0.004850 -1.292284 21.754823 7.795556 37.458953 21.093229 -4.291604 103.191060 67.582937 59.852548 3.108953 -0.711970 -0.020610 0.167010 -0.015960 -0.114590 
-0.019150 19.904780 2.818120 -18.636184 -1.016949 0.468810 -15.141732 11.223942 1.997707 19.443315 -1.833087 -24.744475 -5.398861 11.209294 34.821831 0.018542 6.980679 1.783385 0.306710 0.325790 0.282180 18.821993 -6.732891 7.156247 -29.429314 8.550258 -50.413789 29.430413 -69.104184 96.047633 -4.723346 -20.107813 -1.233692 0.173200 -0.087380 0.123970 -4.419999 -3.095423 -9.606034 25.673285 -7.234327 23.747973 0.966857 -4.413062 9.091710 1.919212 -1.004972 -13.092254 -6.741103 5.004446 57.734035 -3.763960 5.455150 -10.728510 -0.470599 -23.974472 5.898469 -29.009811 -29.135315 0.908235 -112.518188 -75.143051 86.909555 -3.864142 1.994178 0.388250 -0.070870 0.269820 0.013610 -3.012190 23.069600 6.817160 32.637685 23.275967 -6.527573 114.335147 71.525373 78.121628 3.120685 0.391381 -0.028990 0.175290 -0.012050 -0.111880 
